<svg width="1920" height="463" viewBox="0 0 1920 463" fill="none" xmlns="http://www.w3.org/2000/svg">
<path d="M-167.405 459L40.5949 3.99997H88.0449L296.045 459H245.345L54.2449 31.95H73.7449L-117.355 459H-167.405ZM-85.5051 337.45L-71.2051 298.45H193.345L207.645 337.45H-85.5051ZM509.763 462.9C475.963 462.9 443.463 457.483 412.263 446.65C381.496 435.383 357.663 421.083 340.763 403.75L359.613 366.7C375.646 382.3 397.096 395.517 423.963 406.35C451.263 416.75 479.863 421.95 509.763 421.95C538.363 421.95 561.546 418.483 579.313 411.55C597.513 404.183 610.73 394.433 618.963 382.3C627.63 370.167 631.963 356.733 631.963 342C631.963 324.233 626.763 309.933 616.363 299.1C606.396 288.267 593.18 279.817 576.713 273.75C560.246 267.25 542.046 261.617 522.113 256.85C502.18 252.083 482.246 247.1 462.313 241.9C442.38 236.267 423.963 228.9 407.063 219.8C390.596 210.7 377.163 198.783 366.763 184.05C356.796 168.883 351.813 149.167 351.813 124.9C351.813 102.367 357.663 81.7833 369.363 63.15C381.496 44.0833 399.913 28.9166 424.613 17.65C449.313 5.94998 480.946 0.0999805 519.513 0.0999805C545.08 0.0999805 570.43 3.78332 595.563 11.15C620.696 18.0833 642.363 27.8333 660.563 40.4L644.313 78.75C624.813 65.75 604.013 56.2167 581.913 50.15C560.246 44.0833 539.23 41.05 518.863 41.05C491.563 41.05 469.03 44.7333 451.263 52.1C433.496 59.4666 420.28 69.4333 411.613 82C403.38 94.1333 399.263 108 399.263 123.6C399.263 141.367 404.246 155.667 414.213 166.5C424.613 177.333 438.046 185.783 454.513 191.85C471.413 197.917 489.83 203.333 509.763 208.1C529.696 212.867 549.413 218.067 568.913 223.7C588.846 229.333 607.046 236.7 623.513 245.8C640.413 254.467 653.846 266.167 663.813 280.9C674.213 295.633 679.413 314.917 679.413 338.75C679.413 360.85 673.346 381.433 661.213 400.5C649.08 419.133 630.446 434.3 605.313 446C580.613 457.267 548.763 462.9 509.763 462.9ZM879.268 459V45.6H719.368V3.99997H1087.27V45.6H927.368V459H879.268ZM1177.11 459V3.99997H1347.41C1385.98 3.99997 1419.13 10.2833 1446.86 22.85C1474.59 34.9833 1495.83 52.75 1510.56 76.15C1525.73 99.1167 1533.31 127.067 1533.31 160C1533.31 192.067 1525.73 219.8 1510.56 243.2C1495.83 266.167 1474.59 283.933 1446.86 296.5C1419.13 308.633 1385.98 314.7 1347.41 314.7H1203.76L1225.21 292.6V459H1177.11ZM1487.81 459L1370.81 293.9H1422.81L1540.46 459H1487.81ZM1225.21 296.5L1203.76 273.75H1346.11C1391.61 273.75 1426.06 263.783 1449.46 243.85C1473.29 223.917 1485.21 195.967 1485.21 160C1485.21 123.6 1473.29 95.4333 1449.46 75.5C1426.06 55.5666 1391.61 45.6 1346.11 45.6H1203.76L1225.21 22.85V296.5ZM1858.74 462.9C1824.5 462.9 1792.65 457.267 1763.19 446C1734.15 434.3 1708.8 418.05 1687.14 397.25C1665.9 376.017 1649.22 351.533 1637.09 323.8C1625.39 295.633 1619.54 264.867 1619.54 231.5C1619.54 198.133 1625.39 167.583 1637.09 139.85C1649.22 111.683 1665.9 87.2 1687.14 66.4C1708.8 45.1666 1734.15 28.9166 1763.19 17.65C1792.22 5.94998 1824.07 0.0999805 1858.74 0.0999805C1892.97 0.0999805 1924.6 5.94998 1953.64 17.65C1982.67 28.9166 2007.8 44.95 2029.04 65.75C2050.7 86.55 2067.39 111.033 2079.09 139.2C2091.22 167.367 2097.29 198.133 2097.29 231.5C2097.29 264.867 2091.22 295.633 2079.09 323.8C2067.39 351.967 2050.7 376.45 2029.04 397.25C2007.8 418.05 1982.67 434.3 1953.64 446C1924.6 457.267 1892.97 462.9 1858.74 462.9ZM1858.74 420C1886.04 420 1911.17 415.45 1934.14 406.35C1957.54 396.817 1977.69 383.6 1994.59 366.7C2011.92 349.367 2025.35 329.433 2034.89 306.9C2044.42 283.933 2049.19 258.8 2049.19 231.5C2049.19 204.2 2044.42 179.283 2034.89 156.75C2025.35 133.783 2011.92 113.85 1994.59 96.95C1977.69 79.6167 1957.54 66.4 1934.14 57.3C1911.17 47.7666 1886.04 43 1858.74 43C1831.44 43 1806.09 47.7666 1782.69 57.3C1759.29 66.4 1738.92 79.6167 1721.59 96.95C1704.69 113.85 1691.25 133.783 1681.29 156.75C1671.75 179.283 1666.99 204.2 1666.99 231.5C1666.99 258.367 1671.75 283.283 1681.29 306.25C1691.25 329.217 1704.69 349.367 1721.59 366.7C1738.92 383.6 1759.29 396.817 1782.69 406.35C1806.09 415.45 1831.44 420 1858.74 420Z" fill="white" fill-opacity="0.1"/>
</svg>
