<svg width="1795" height="744" viewBox="0 0 1795 744" fill="none" xmlns="http://www.w3.org/2000/svg">
<g filter="url(#filter0_f_809_348)">
<path d="M87.1374 678.768L90.2695 685.124L94.0929 679.159C100.534 669.11 112.627 660.518 130.368 653.377C148.051 646.259 170.902 640.758 198.258 636.602C252.962 628.291 325.001 625.455 408.227 625.439C490.614 625.423 583.773 628.17 681.659 631.056L684.529 631.141C783.44 634.057 887.085 637.088 989.12 637.525C1193.06 638.399 1391.07 628.924 1532.31 587.233C1602.93 566.387 1659.84 537.355 1696.13 497.098C1732.61 456.639 1747.96 405.18 1736.01 340.465C1732.4 320.91 1720.7 301.82 1702.6 283.461C1684.48 265.087 1659.73 247.226 1629.57 230.122C1569.26 195.913 1486.8 164.447 1391.02 137.913C1199.43 84.8379 953.841 51.3128 723.874 55.3243C494.105 59.3324 279.052 100.822 149.257 198.57C84.2171 247.551 40.4826 310.744 27.2295 390.383C13.9918 469.929 31.2496 565.366 87.1374 678.768Z" stroke="white" stroke-width="8"/>
</g>
<path d="M90.7253 677C-354.527 -226.466 1677.44 45.2657 1732.08 341.191C1825.99 849.898 204.106 500.104 90.7253 677Z" stroke="#E5BEFF" stroke-width="3"/>
<defs>
<filter id="filter0_f_809_348" x="-31.5" y="0.5" width="1826" height="743.248" filterUnits="userSpaceOnUse" color-interpolation-filters="sRGB">
<feFlood flood-opacity="0" result="BackgroundImageFix"/>
<feBlend mode="normal" in="SourceGraphic" in2="BackgroundImageFix" result="shape"/>
<feGaussianBlur stdDeviation="25.25" result="effect1_foregroundBlur_809_348"/>
</filter>
</defs>
</svg>
